<?xml version="1.0" encoding="utf-8"?>
<!-- Generator: Adobe Illustrator 26.3.1, SVG Export Plug-In . SVG Version: 6.00 Build 0)  -->
<svg version="1.1" id="レイヤー_1" xmlns="http://www.w3.org/2000/svg" xmlns:xlink="http://www.w3.org/1999/xlink" x="0px"
	 y="0px" viewBox="0 0 323.9 77.35" style="enable-background:new 0 0 323.9 77.35;" xml:space="preserve">
<style type="text/css">
	
		.st0{clip-path:url(#SVGID_00000021804598458330324780000001867941848951060126_);fill:url(#SVGID_00000170250478492037922030000001670330042527589763_);}
	
		.st1{clip-path:url(#SVGID_00000121280177512690116510000011703027027056065165_);fill:url(#SVGID_00000018197727149114303850000005760096377730721199_);}
	
		.st2{clip-path:url(#SVGID_00000111910698975314956940000008444836036069031057_);fill:url(#SVGID_00000163781039128894699300000005920991762967911079_);}
	
		.st3{clip-path:url(#SVGID_00000156553440301250544240000001021513924819283121_);fill:url(#SVGID_00000102513008382157196760000014502230856034110126_);}
	
		.st4{clip-path:url(#SVGID_00000018954112196809290760000006455974268128923303_);fill:url(#SVGID_00000142892869954098473650000013032632756268948389_);}
	
		.st5{clip-path:url(#SVGID_00000159429546874230639220000006435358923731216559_);fill:url(#SVGID_00000011032661262375363150000005952512025776693659_);}
	.st6{fill:#898989;}
</style>
<g>
	<g>
		<defs>
			<path id="SVGID_1_" d="M55.49,72.8c0.07-0.47,0.11-0.95,0.12-1.43C55.58,71.85,55.53,72.33,55.49,72.8 M7.58,3.4L7.56,3.49
				c0.74,0.4,46.81,42.71,47.71,64.95c0.24,1,0.35,1.98,0.33,2.93C57.78,39.02,22.86,7.88,15.2,2.83C12.6,2.85,10.04,3.04,7.58,3.4"
				/>
		</defs>
		<clipPath id="SVGID_00000180325250861746279030000007765421932688323736_">
			<use xlink:href="#SVGID_1_"  style="overflow:visible;"/>
		</clipPath>
		
			<linearGradient id="SVGID_00000085970326254880373150000012424225085287615119_" gradientUnits="userSpaceOnUse" x1="-1.3579" y1="156.3382" x2="0.2124" y2="156.3382" gradientTransform="matrix(35.0606 34.219 -34.219 35.0606 5400.4736 -5425.8638)">
			<stop  offset="0" style="stop-color:#D79413"/>
			<stop  offset="0.5" style="stop-color:#F5A943"/>
			<stop  offset="1" style="stop-color:#F5A943"/>
		</linearGradient>
		
			<polygon style="clip-path:url(#SVGID_00000180325250861746279030000007765421932688323736_);fill:url(#SVGID_00000085970326254880373150000012424225085287615119_);" points="
			-27.42,38.67 33.28,97.91 92.76,36.97 32.06,-22.28 		"/>
	</g>
	<g>
		<defs>
			<path id="SVGID_00000007427167040306199720000006658839114829099410_" d="M55.93,70.73c0.32-1.52,0.64-3.04,0.96-4.56
				c5.58-27.52-15.08-50.69-27.89-62.05c-2.67-0.51-5.37-0.88-8.06-1.09C30.61,10.21,61.49,40.08,55.93,70.73"/>
		</defs>
		<clipPath id="SVGID_00000023986170383012529170000000284344946192614805_">
			<use xlink:href="#SVGID_00000007427167040306199720000006658839114829099410_"  style="overflow:visible;"/>
		</clipPath>
		
			<linearGradient id="SVGID_00000123442536782249171360000005917316886510226315_" gradientUnits="userSpaceOnUse" x1="1.0494" y1="156.8143" x2="2.6198" y2="156.8143" gradientTransform="matrix(-32.9468 -10.9152 10.9152 -32.9468 -1612.4746 5222.4492)">
			<stop  offset="0" style="stop-color:#E6E763"/>
			<stop  offset="0.5" style="stop-color:#E1D922"/>
			<stop  offset="1" style="stop-color:#C5BA18"/>
		</linearGradient>
		
			<polygon style="clip-path:url(#SVGID_00000023986170383012529170000000284344946192614805_);fill:url(#SVGID_00000123442536782249171360000005917316886510226315_);" points="
			82.68,9.72 25.05,-9.37 0.74,64.03 58.36,83.12 		"/>
	</g>
	<g>
		<defs>
			<path id="SVGID_00000072970990417226719190000018141849378115861401_" d="M57.58,62.9l0.96-4.56
				c3.34-16.43-1.07-34.42-16.3-50.35c-2.43-0.97-4.96-1.82-7.56-2.54C61.8,32.54,58.6,57.29,57.58,62.9"/>
		</defs>
		<clipPath id="SVGID_00000084524704848788663150000003093068957831125423_">
			<use xlink:href="#SVGID_00000072970990417226719190000018141849378115861401_"  style="overflow:visible;"/>
		</clipPath>
		
			<linearGradient id="SVGID_00000005970292994927681300000012896536830864771243_" gradientUnits="userSpaceOnUse" x1="1.4256" y1="157.1219" x2="2.9952" y2="157.1219" gradientTransform="matrix(-24.0616 -7.9715 7.9715 -24.0616 -1152.9758 3831.751)">
			<stop  offset="0" style="stop-color:#37B9E3"/>
			<stop  offset="0.5" style="stop-color:#23A3DD"/>
			<stop  offset="1" style="stop-color:#188DCA"/>
		</linearGradient>
		
			<polygon style="clip-path:url(#SVGID_00000084524704848788663150000003093068957831125423_);fill:url(#SVGID_00000005970292994927681300000012896536830864771243_);" points="
			79.03,11.12 37.37,-2.68 17.53,57.21 59.19,71.02 		"/>
	</g>
	<g>
		<defs>
			<path id="SVGID_00000017513099279943180030000010222953228719663495_" d="M65.26,72.8c-0.05-0.48-0.09-0.95-0.12-1.43
				C65.15,71.86,65.19,72.33,65.26,72.8 M65.14,71.38c-0.02-0.96,0.09-1.94,0.33-2.93c0.9-22.25,46.98-64.56,47.71-64.95l-0.02-0.08
				c-2.47-0.37-5.02-0.55-7.62-0.58C97.89,7.88,62.96,39.02,65.14,71.38"/>
		</defs>
		<clipPath id="SVGID_00000166633973478521136940000000769933034645114300_">
			<use xlink:href="#SVGID_00000017513099279943180030000010222953228719663495_"  style="overflow:visible;"/>
		</clipPath>
		
			<linearGradient id="SVGID_00000137115052576474045230000012030094162512813956_" gradientUnits="userSpaceOnUse" x1="-0.4874" y1="155.5039" x2="1.0829" y2="155.5039" gradientTransform="matrix(-35.0603 34.2188 34.2188 35.0603 -5220.5718 -5426.4072)">
			<stop  offset="0" style="stop-color:#D79413"/>
			<stop  offset="0.5" style="stop-color:#F5A943"/>
			<stop  offset="1" style="stop-color:#F5A943"/>
		</linearGradient>
		
			<polygon style="clip-path:url(#SVGID_00000166633973478521136940000000769933034645114300_);fill:url(#SVGID_00000137115052576474045230000012030094162512813956_);" points="
			148.17,38.67 87.47,97.91 27.98,36.97 88.69,-22.28 		"/>
	</g>
	<g>
		<defs>
			<path id="SVGID_00000108298645867830184500000003162193974157244544_" d="M91.74,4.12C78.93,15.48,58.28,38.65,63.86,66.17
				c0.32,1.52,0.63,3.04,0.96,4.56C59.26,40.08,90.14,10.21,99.8,3.03C97.11,3.24,94.41,3.6,91.74,4.12"/>
		</defs>
		<clipPath id="SVGID_00000019660665574557262600000017048039210978203320_">
			<use xlink:href="#SVGID_00000108298645867830184500000003162193974157244544_"  style="overflow:visible;"/>
		</clipPath>
		
			<linearGradient id="SVGID_00000044174344312981630940000000501800607842841511_" gradientUnits="userSpaceOnUse" x1="-0.5541" y1="157.3512" x2="1.0162" y2="157.3512" gradientTransform="matrix(32.9475 -10.9154 -10.9154 -32.9475 1791.9232 5222.751)">
			<stop  offset="0" style="stop-color:#E6E763"/>
			<stop  offset="0.5" style="stop-color:#E1D922"/>
			<stop  offset="1" style="stop-color:#C5BA18"/>
		</linearGradient>
		
			<polygon style="clip-path:url(#SVGID_00000019660665574557262600000017048039210978203320_);fill:url(#SVGID_00000044174344312981630940000000501800607842841511_);" points="
			38.07,9.72 95.7,-9.37 120.01,64.03 62.39,83.12 		"/>
	</g>
	<g>
		<defs>
			<path id="SVGID_00000089545851272285582260000013501931605623215799_" d="M78.51,7.98c-15.22,15.93-19.64,33.92-16.3,50.35
				l0.96,4.56c-1.02-5.6-4.23-30.36,22.89-57.46C83.47,6.16,80.93,7.01,78.51,7.98"/>
		</defs>
		<clipPath id="SVGID_00000168800634562299144010000003592402452527271828_">
			<use xlink:href="#SVGID_00000089545851272285582260000013501931605623215799_"  style="overflow:visible;"/>
		</clipPath>
		
			<linearGradient id="SVGID_00000073709140261809475030000007248947984835964826_" gradientUnits="userSpaceOnUse" x1="-0.7618" y1="157.8259" x2="0.8087" y2="157.8259" gradientTransform="matrix(24.0612 -7.9714 -7.9714 -24.0612 1331.9125 3831.2004)">
			<stop  offset="0" style="stop-color:#37B9E3"/>
			<stop  offset="0.5" style="stop-color:#23A3DD"/>
			<stop  offset="1" style="stop-color:#188DCA"/>
		</linearGradient>
		
			<polygon style="clip-path:url(#SVGID_00000168800634562299144010000003592402452527271828_);fill:url(#SVGID_00000073709140261809475030000007248947984835964826_);" points="
			41.71,11.12 83.38,-2.68 103.22,57.21 61.56,71.02 		"/>
	</g>
	<g>
		<path d="M159.33,25.36c5.81-4.01,9.54-8.48,11.18-13.41h-15.73V4.99h-3.79v6.97h-14.74v3.32h28.53
			c-2.53,3.79-6.6,7.17-12.23,10.14c-5.62,2.97-12.13,5.15-19.52,6.54l0.81,3.37c6.38-1.23,12.1-3,17.15-5.31v14.02h3.79V28.11
			l1.28-0.71l14.26,9.76l2.27-2.75L159.33,25.36z"/>
		<path d="M185.34,39.29c9.13-0.79,15.88-3.25,20.26-7.37c4.38-4.12,6.75-10.26,7.13-18.41h-18.76c-1.83,5.06-4.93,9.62-9.29,13.69
			l-2.51-2.23c5.88-5.56,9.26-12.18,10.14-19.86l3.55,0.05c-0.19,1.74-0.48,3.41-0.85,5.03h21.61c0,10.27-2.54,18.01-7.63,23.24
			c-5.09,5.23-12.84,8.28-23.27,9.17L185.34,39.29z"/>
		<path d="M268.36,4.14c1.1,1.11,1.66,2.45,1.66,4.03c0,1.58-0.55,2.92-1.66,4.03c-1.11,1.1-2.45,1.66-4.03,1.66
			c-0.44,0-0.87-0.05-1.28-0.14c-0.66,8.53-3.3,15.08-7.91,19.64c-4.62,4.56-11.49,7.54-20.61,8.93l-0.52-3.32
			c8.59-1.42,14.87-4.22,18.84-8.39c3.96-4.17,6.07-10.22,6.33-18.15h-29.29V8.97h28.81c-0.03-0.19-0.05-0.46-0.05-0.8
			c0-1.58,0.55-2.92,1.66-4.03c1.11-1.11,2.45-1.66,4.03-1.66C265.92,2.48,267.26,3.03,268.36,4.14 M266.52,10.34
			c0.6-0.6,0.9-1.33,0.9-2.18c0-0.85-0.3-1.58-0.9-2.18c-0.6-0.6-1.33-0.9-2.18-0.9c-0.85,0-1.58,0.3-2.18,0.9
			c-0.6,0.6-0.9,1.33-0.9,2.18c0,0.85,0.3,1.58,0.9,2.18c0.6,0.6,1.32,0.9,2.18,0.9C265.19,11.24,265.92,10.94,266.52,10.34"/>
		<path d="M308.74,39.53h-27.2v2.75h-3.79V8.49h34.78v33.79h-3.79V39.53z M281.54,36.12h27.2V11.86h-27.2V36.12z"/>
		<path class="st6" d="M137.28,69.99V58.84h2.07v1.34c0.77-1.05,2.02-1.64,3.33-1.64c1.73,0,2.79,0.94,3.2,1.79
			c0.45,0.9,0.51,1.81,0.51,2.7v6.97h-2.11v-6.95c0-1.28-0.36-2.58-2.19-2.58c-1.09,0-2.71,0.66-2.71,3.22v6.31H137.28z"/>
		<path class="st6" d="M156.18,65.13c0.17,2.28,1.54,3.28,3.67,3.28c1.71,0,2.69-0.51,3.48-0.96v2.13
			c-0.58,0.25-1.71,0.71-3.54,0.71c-4.58,0-5.71-3.43-5.71-5.8c0-3.58,2.2-5.95,5.14-5.95c1.32,0,3.47,0.53,4.46,3.01
			c0.51,1.24,0.55,2.67,0.55,3.58H156.18z M162.13,63.41c-0.26-2.75-2.3-2.99-2.94-2.99c-1.3,0-2.77,0.81-2.99,2.99H162.13z"/>
		<polygon class="st6" points="176,62.6 178.45,58.84 180.81,58.84 177.26,64.11 181.18,69.99 178.81,69.99 176,65.67 173.18,69.99 
			170.82,69.99 174.74,64.13 171.18,58.84 173.54,58.84 		"/>
		<rect x="187.48" y="63.36" class="st6" width="5.08" height="2.09"/>
		<path class="st6" d="M202.1,60.19c1.34-1.66,2.96-1.66,3.45-1.66c3.09,0,4.97,2.62,4.97,5.87c0,3.26-1.88,5.88-4.95,5.88
			c-1.98,0-3.07-1.19-3.43-1.58V75h-2.11V58.84h2.07V60.19z M205.27,68.35c2.22,0,3.16-1.92,3.16-3.94c0-2.01-0.94-3.95-3.16-3.95
			c-1.17,0-3.2,0.68-3.2,3.95C202.07,67.69,204.08,68.35,205.27,68.35"/>
		<path class="st6" d="M218.27,69.99V58.84h2.05v1.34c0.83-1.24,1.96-1.68,3.48-1.64v1.94c-2.09-0.1-3.44,0.79-3.44,3.26v6.25
			H218.27z"/>
		<path class="st6" d="M236.38,58.54c2.9,0,5.52,2.2,5.52,5.87c0,3.65-2.58,5.88-5.52,5.88c-2.92,0-5.5-2.2-5.5-5.88
			C230.88,60.7,233.5,58.54,236.38,58.54 M236.38,68.35c1.39,0,3.41-0.88,3.41-3.94c0-3.03-2.02-3.95-3.41-3.95
			c-1.38,0-3.41,0.88-3.41,3.95C232.97,67.48,235.02,68.35,236.38,68.35"/>
		<rect x="249.61" y="67.24" class="st6" width="2.69" height="2.75"/>
		<path class="st6" d="M269.14,69.52c-0.83,0.45-1.94,0.77-3.33,0.77c-3.78,0-5.84-2.47-5.84-5.8c0-3.67,2.52-5.95,5.74-5.95
			c1.88,0,3.03,0.73,3.43,0.98l-0.56,1.9c-0.34-0.26-1.21-0.96-2.73-0.96c-2.05,0-3.77,1.34-3.77,3.95c0,2.15,1.17,3.93,3.82,3.93
			c1.68,0,2.81-0.71,3.24-0.98V69.52z"/>
		<path class="st6" d="M281.81,58.54c2.9,0,5.52,2.2,5.52,5.87c0,3.65-2.58,5.88-5.52,5.88c-2.92,0-5.5-2.2-5.5-5.88
			C276.31,60.7,278.93,58.54,281.81,58.54 M281.81,68.35c1.39,0,3.41-0.88,3.41-3.94c0-3.03-2.02-3.95-3.41-3.95
			c-1.38,0-3.41,0.88-3.41,3.95C278.4,67.48,280.45,68.35,281.81,68.35"/>
		<path class="st6" d="M301.57,69.99v-6.44c0-1.43-0.15-3.09-1.86-3.09c-0.98,0-2.56,0.64-2.56,3.01v6.52h-2.09V58.84h2.05v1.35
			c0.38-0.51,1.21-1.66,3.07-1.66c2.07,0,2.79,1.43,3.01,1.9c0.92-1.41,2.11-1.9,3.48-1.9c1.62,0,2.65,0.85,3.09,1.73
			c0.4,0.83,0.49,1.73,0.49,2.9v6.82h-2.11v-6.95c0-1.37-0.43-2.58-1.94-2.58c-0.87,0-2.52,0.47-2.52,3.3v6.23H301.57z"/>
	</g>
</g>
</svg>
